<svg width="49" height="48" viewBox="0 0 49 48" fill="none" xmlns="http://www.w3.org/2000/svg">
<circle cx="24.1052" cy="24" r="24" fill="#FFAF00"/>
<path d="M24.1374 26.8912C24.8814 26.8912 25.4714 26.3127 25.4714 25.6497V13.705L25.356 11.9332L26.0999 12.8492L27.7675 14.5246C27.9984 14.7537 28.3191 14.8862 28.6526 14.8862C29.2811 14.8862 29.8327 14.4403 29.8327 13.8135C29.8327 13.5001 29.6916 13.2591 29.4607 13.03L25.1764 9.16097C24.83 8.83553 24.4837 8.72705 24.1374 8.72705C23.7782 8.72705 23.4319 8.83553 23.0855 9.16097L18.8012 13.03C18.5704 13.2591 18.4293 13.5001 18.4293 13.8135C18.4293 14.4403 18.968 14.8862 19.6094 14.8862C19.9429 14.8862 20.2635 14.7537 20.4944 14.5246L22.162 12.8492L22.906 11.9332L22.7905 13.705V25.6497C22.7905 26.3127 23.3934 26.8912 24.1374 26.8912ZM16.6976 36.6543H31.513C34.3735 36.6543 35.8871 35.232 35.8871 32.5683V20.8646C35.8871 18.2009 34.3735 16.7786 31.513 16.7786H28.1395V19.5388H31.2437C32.3468 19.5388 32.9625 20.0691 32.9625 21.166V32.279C32.9625 33.3638 32.3468 33.8941 31.2437 33.8941H16.9669C15.851 33.8941 15.2609 33.3638 15.2609 32.279V21.166C15.2609 20.0691 15.851 19.5388 16.9669 19.5388H20.1224V16.7786H16.6976C13.8499 16.7786 12.3235 18.2009 12.3235 20.8646V32.5683C12.3235 35.232 13.8499 36.6543 16.6976 36.6543Z" fill="white"/>
</svg>
