<svg width="51" height="51" viewBox="0 0 51 51" fill="none" xmlns="http://www.w3.org/2000/svg">
<path d="M49.1052 25.843C49.1052 39.0978 38.36 49.843 25.1052 49.843C11.8504 49.843 1.10522 39.0978 1.10522 25.843C1.10522 12.5882 11.8504 1.84302 25.1052 1.84302C38.36 1.84302 49.1052 12.5882 49.1052 25.843Z" stroke="black" stroke-width="2"/>
<path d="M25 15C18.3733 15 13 20.1494 13 26.5H9L14.3333 31.6111L19.6667 26.5H15.6667C15.6667 21.555 19.84 17.5556 25 17.5556C30.16 17.5556 34.3333 21.555 34.3333 26.5C34.3333 31.445 30.16 35.4444 25 35.4444C22.9867 35.4444 21.12 34.8183 19.5867 33.7833L17.6933 35.6233C19.72 37.1056 22.2533 38 25 38C31.6267 38 37 32.8506 37 26.5C37 20.1494 31.6267 15 25 15Z" fill="black"/>
</svg>
